<?xml version="1.0" standalone="no"?>
<!DOCTYPE svg PUBLIC "-//W3C//DTD SVG 20010904//EN"
 "http://www.w3.org/TR/2001/REC-SVG-20010904/DTD/svg10.dtd">
<svg version="1.0" xmlns="http://www.w3.org/2000/svg"
 width="646.000000pt" height="646.000000pt" viewBox="0 0 646.000000 646.000000"
 preserveAspectRatio="xMidYMid meet">
<metadata>
Created by potrace 1.11, written by Peter Selinger 2001-2013
</metadata>
<g transform="translate(0.000000,646.000000) scale(0.100000,-0.100000)"
fill="#000000" stroke="none">
<path d="M2460 6389 c-25 -5 -67 -24 -94 -43 -63 -44 -196 -191 -258 -285 -65
-99 -79 -151 -78 -286 1 -60 1 -115 1 -121 -1 -7 -22 -15 -48 -19 -58 -8 -213
-65 -303 -110 -96 -48 -161 -104 -213 -182 -96 -146 -137 -258 -137 -380 0
-38 -5 -65 -12 -70 -7 -4 -94 -10 -193 -13 -168 -5 -184 -8 -237 -32 -73 -34
-146 -106 -184 -183 -26 -54 -29 -70 -29 -160 l0 -100 -77 -7 c-99 -9 -160
-40 -229 -117 -192 -212 -217 -410 -95 -756 76 -219 164 -391 256 -506 28 -34
50 -68 50 -76 0 -8 -9 -26 -20 -41 -54 -75 -67 -276 -36 -557 23 -200 43 -290
111 -479 72 -203 130 -334 205 -466 91 -158 282 -420 389 -533 280 -294 827
-652 1101 -721 133 -33 385 -56 655 -59 l230 -2 115 32 c126 35 246 53 355 53
88 0 158 18 255 65 l75 36 156 -7 c180 -7 200 -2 318 85 36 27 113 75 171 106
149 82 180 105 294 219 87 88 116 109 203 154 130 67 191 123 291 269 45 65
118 161 162 213 45 52 112 140 150 195 37 55 102 141 144 190 86 101 118 161
189 355 131 361 133 371 143 690 8 237 -2 316 -82 595 -72 250 -120 350 -307
628 -32 49 -97 152 -144 230 -211 351 -337 477 -681 681 -62 37 -141 80 -175
95 -34 16 -80 43 -101 60 -32 26 -47 31 -80 29 l-39 -3 -32 90 c-78 221 -187
368 -309 413 -82 31 -143 35 -293 18 -76 -8 -188 -20 -250 -26 -61 -6 -133
-17 -160 -25 -78 -24 -82 -22 -157 73 -64 81 -93 124 -220 320 -53 83 -166
205 -246 267 -117 90 -327 194 -420 208 -19 2 -55 1 -80 -4z m193 -182 c129
-61 230 -130 309 -210 63 -64 103 -119 223 -307 26 -41 76 -112 111 -157 35
-45 64 -86 64 -92 0 -5 -21 -25 -47 -42 -27 -18 -86 -64 -133 -103 -208 -174
-464 -376 -476 -376 -8 0 -14 5 -14 12 0 6 -87 99 -193 207 -203 206 -248 262
-279 345 -41 106 -66 311 -48 390 15 66 84 169 182 272 126 131 145 135 301
61z m-592 -717 c4 -8 26 -54 48 -101 33 -71 58 -105 147 -200 140 -150 301
-298 341 -315 19 -8 30 -19 28 -27 -3 -6 -33 -34 -66 -62 -112 -92 -193 -212
-219 -324 -16 -69 -7 -168 20 -222 67 -130 288 -256 508 -290 46 -7 81 -16 80
-19 -2 -4 -52 -48 -113 -99 -69 -58 -124 -95 -148 -102 -28 -7 -81 -6 -195 6
-187 18 -215 25 -273 67 -65 47 -324 273 -389 339 -69 70 -135 182 -211 357
-135 309 -170 463 -136 583 18 60 102 208 145 252 51 54 343 180 401 174 13
-1 28 -9 32 -17z m2190 -71 c94 -47 194 -225 234 -415 23 -108 31 -367 16
-475 -11 -74 -39 -204 -126 -581 -31 -136 -65 -210 -109 -238 -41 -25 -58 -63
-54 -121 3 -38 7 -45 45 -68 31 -19 73 -69 161 -191 176 -244 411 -554 627
-825 256 -321 289 -366 444 -605 74 -113 145 -215 158 -228 14 -13 22 -29 19
-38 -12 -32 -91 -140 -167 -227 -44 -51 -116 -145 -160 -209 -97 -141 -143
-184 -246 -237 -103 -51 -158 -93 -269 -205 -76 -77 -108 -101 -208 -155 -65
-35 -152 -88 -193 -118 -104 -74 -107 -76 -187 -72 -39 2 -114 3 -166 4 -91 0
-98 -2 -188 -44 -51 -23 -110 -45 -130 -48 l-37 -5 -18 87 c-26 124 -55 192
-256 587 -99 194 -221 441 -271 548 -50 107 -124 260 -163 340 -40 80 -73 148
-75 152 -2 3 23 14 54 23 88 25 231 101 239 125 12 37 -3 70 -39 85 -40 17
-62 11 -160 -38 -38 -20 -98 -41 -135 -47 -95 -17 -619 -7 -726 13 -97 19
-246 91 -362 174 -79 56 -333 274 -382 327 l-24 25 33 18 c98 54 132 91 205
219 42 73 45 84 45 150 l0 71 105 64 c208 125 398 291 411 359 5 24 10 29 23
24 9 -4 30 -9 46 -11 l30 -5 1 -106 c1 -115 26 -277 50 -324 22 -43 59 -63 90
-50 45 21 49 47 25 194 -12 73 -21 160 -19 193 l3 60 86 -3 c65 -3 105 1 166
18 94 25 126 44 225 128 40 34 98 79 128 100 32 22 63 54 75 76 18 35 27 40
100 61 132 38 359 143 490 226 123 77 211 199 222 305 6 60 -6 84 -42 84 -28
0 -48 -22 -78 -90 -40 -92 -95 -142 -247 -227 -80 -44 -277 -129 -360 -154
-64 -19 -87 -21 -203 -16 -152 6 -243 28 -351 85 -100 52 -166 116 -176 170
-8 43 3 129 19 145 4 4 32 -40 61 -100 42 -86 66 -121 120 -175 109 -109 148
-107 344 22 192 126 243 184 278 315 17 63 0 91 -122 194 -96 80 -184 188
-178 216 2 7 48 49 103 93 55 44 140 114 189 155 154 129 289 190 465 207 58
6 162 17 231 25 141 15 208 11 261 -16z m-1340 -600 c26 -51 92 -123 176 -191
71 -58 79 -83 41 -135 -31 -41 -68 -71 -183 -147 -124 -83 -140 -84 -195 -14
-45 56 -126 214 -136 264 -5 26 -1 37 23 63 42 46 226 200 240 200 7 1 22 -18
34 -40z m-1525 -111 c123 -328 220 -522 316 -635 24 -28 79 -82 123 -119 68
-58 239 -209 284 -249 11 -11 -1 -27 -65 -92 -92 -92 -188 -166 -334 -255
-143 -88 -168 -97 -211 -72 -39 22 -210 232 -332 406 -149 213 -227 368 -315
628 -53 158 -59 229 -24 296 27 54 95 111 146 125 40 11 260 35 343 38 l41 1
28 -72z m3688 -402 l380 -13 28 -34 c16 -19 66 -95 112 -169 45 -74 127 -202
181 -285 116 -178 193 -332 202 -404 l6 -51 -684 0 c-629 0 -687 1 -709 17
-31 21 -29 19 -117 135 -40 52 -73 102 -73 111 0 9 11 32 25 52 46 69 79 177
140 465 15 69 34 140 42 158 13 28 20 32 52 32 20 -1 207 -7 415 -14z m-4362
-33 c9 -10 37 -72 63 -138 97 -250 202 -427 432 -725 140 -182 193 -234 269
-265 74 -30 79 -51 34 -130 -43 -76 -76 -113 -119 -134 -51 -26 -213 -71 -255
-71 -40 0 -221 65 -298 107 -70 38 -196 164 -253 252 -62 95 -144 269 -190
401 -91 263 -88 397 14 554 77 118 146 164 247 165 27 1 46 -5 56 -16z m2197
-2532 c12 -16 43 -78 70 -137 27 -60 103 -221 170 -358 67 -137 121 -257 121
-268 0 -17 -33 -18 -953 -18 l-954 0 -39 28 c-49 35 -95 92 -206 247 -138 194
-258 409 -274 492 l-6 32 103 4 c57 1 519 4 1026 5 l922 2 20 -29z"/>
<path d="M3577 2552 c-20 -22 -22 -64 -5 -95 36 -70 191 -253 230 -273 58 -30
100 6 84 70 -6 26 -184 270 -218 299 -26 22 -71 22 -91 -1z"/>
<path d="M3462 2368 c-22 -22 -13 -72 23 -125 19 -28 69 -114 111 -190 80
-146 102 -173 140 -173 25 0 54 33 54 62 0 49 -209 406 -250 428 -25 14 -63
13 -78 -2z"/>
</g>
</svg>
